<svg width="18" height="18" viewBox="0 0 18 18" fill="none" xmlns="http://www.w3.org/2000/svg">
<path d="M6.6 5.6L17 16M6.6 12.4L17 2M1 4C1 4.79565 1.31607 5.55871 1.87868 6.12132C2.44129 6.68393 3.20435 7 4 7C4.79565 7 5.55871 6.68393 6.12132 6.12132C6.68393 5.55871 7 4.79565 7 4C7 3.20435 6.68393 2.44129 6.12132 1.87868C5.55871 1.31607 4.79565 1 4 1C3.20435 1 2.44129 1.31607 1.87868 1.87868C1.31607 2.44129 1 3.20435 1 4ZM1 14C1 14.7956 1.31607 15.5587 1.87868 16.1213C2.44129 16.6839 3.20435 17 4 17C4.79565 17 5.55871 16.6839 6.12132 16.1213C6.68393 15.5587 7 14.7956 7 14C7 13.2044 6.68393 12.4413 6.12132 11.8787C5.55871 11.3161 4.79565 11 4 11C3.20435 11 2.44129 11.3161 1.87868 11.8787C1.31607 12.4413 1 13.2044 1 14Z" stroke="#E21A36" stroke-width="2" stroke-linecap="round" stroke-linejoin="round"/>
</svg>
