<svg width="43" height="11" viewBox="0 0 43 11" fill="none" xmlns="http://www.w3.org/2000/svg">
<path d="M33.7234 7.45405H36.9713C37.1439 8.23784 37.5863 8.50811 38.4981 8.50811C39.3074 8.50811 39.7498 8.22162 39.7498 7.76216C39.7498 7.1027 39.1563 7.05946 37.9154 6.73514C36.4695 6.35676 35.5416 6.03243 35.11 5.72973C34.7241 5.46449 34.4124 5.10467 34.2046 4.68456C33.9969 4.26444 33.8999 3.79802 33.923 3.32973C33.923 1.31351 35.5092 0 38.2715 0C40.9529 0 42.5229 1.17838 42.7063 3.28649H39.5502C39.4423 2.65946 39.0161 2.36757 38.2068 2.36757C37.5054 2.36757 37.1547 2.6 37.1547 3.07027C37.1547 3.62162 37.6942 3.72973 38.6977 3.98919C39.9926 4.32432 41.0176 4.52433 41.6705 4.97838C42.0915 5.22464 42.4375 5.58124 42.6714 6.00983C42.9052 6.43842 43.018 6.92279 42.9977 7.41081C42.9977 9.67027 41.3791 11 38.3578 11C35.5686 11 33.9338 9.68649 33.7234 7.45405ZM14.4035 5.5027C14.4035 2.0973 16.4482 0 19.6799 0C22.7012 0 24.4708 1.52973 24.665 4.23243H21.4927C21.401 3.17838 20.8075 2.61081 19.7231 2.61081C18.4121 2.61081 17.7754 3.57297 17.7754 5.5027C17.7754 7.39459 18.4768 8.37297 19.831 8.37297C20.8399 8.37297 21.4765 7.76216 21.5844 6.64324H24.7136V6.65946C24.5301 9.3946 22.7282 11 19.7393 11C16.4159 11 14.3981 8.89189 14.3981 5.5027H14.4035ZM0.446283 4.84324C0.160287 4.55205 0 4.15989 0 3.75135C0 3.34282 0.160287 2.95066 0.446283 2.65946L2.63131 0.475675C2.77077 0.329919 2.93832 0.214044 3.12379 0.135068C3.30926 0.0560911 3.50881 0.0156574 3.71034 0.0162156C3.91499 0.0161262 4.11764 0.0566869 4.30655 0.135551C4.49546 0.214415 4.6669 0.330017 4.81094 0.475675L6.60752 2.27568L8.39331 0.475675C8.53544 0.330543 8.70503 0.215257 8.89215 0.136557C9.07927 0.0578567 9.28018 0.0173208 9.48312 0.0173208C9.68606 0.0173208 9.88697 0.0578567 10.0741 0.136557C10.2612 0.215257 10.4308 0.330543 10.5729 0.475675L12.758 2.64324C13.044 2.93444 13.2042 3.3266 13.2042 3.73514C13.2042 4.14367 13.044 4.53583 12.758 4.82703L6.60752 11L0.446283 4.84324ZM27.4867 10.7243L23.996 0.308109H27.3949L29.1484 7.02703L31.0259 0.308109H34.3061L30.8047 10.7243H27.4867Z" fill="#E21A36"/>
</svg>
