<svg width="105" height="24" viewBox="0 0 105 24" fill="none" xmlns="http://www.w3.org/2000/svg">
<path d="M104.155 5.50563V8.57381H95.8962V5.50563H104.155ZM97.6264 2.36926H101.794V14.4801C101.794 14.7357 101.834 14.9431 101.913 15.1022C101.999 15.2556 102.121 15.3664 102.28 15.4346C102.439 15.4971 102.629 15.5284 102.851 15.5284C103.01 15.5284 103.177 15.5141 103.354 15.4857C103.535 15.4516 103.672 15.4232 103.763 15.4005L104.393 18.409C104.195 18.4659 103.913 18.5369 103.55 18.6221C103.192 18.7073 102.763 18.7613 102.263 18.784C101.285 18.8295 100.447 18.7159 99.7485 18.4431C99.0553 18.1647 98.5241 17.7329 98.1548 17.1477C97.7911 16.5624 97.615 15.8266 97.6264 14.9403V2.36926Z" fill="#030303"/>
<path d="M86.7223 11.1307V18.5966H82.5547V5.50566H86.5178V7.90907H86.6626C86.9524 7.10793 87.4467 6.48009 88.1456 6.02555C88.8445 5.56532 89.6768 5.33521 90.6428 5.33521C91.5632 5.33521 92.3615 5.54259 93.0376 5.95736C93.7195 6.36645 94.2479 6.94032 94.6229 7.67896C95.0036 8.41191 95.1911 9.26986 95.1854 10.2528V18.5966H91.0178V11.071C91.0234 10.3437 90.8388 9.77555 90.4638 9.36646C90.0945 8.95736 89.5803 8.75282 88.9212 8.75282C88.4837 8.75282 88.0973 8.84941 87.7621 9.04259C87.4325 9.23009 87.1768 9.49998 86.995 9.85225C86.8189 10.2045 86.728 10.6307 86.7223 11.1307Z" fill="#030303"/>
<path d="M76.7344 18.5966V5.50568H80.902V18.5966H76.7344ZM78.8224 3.98011C78.2372 3.98011 77.7344 3.78693 77.3139 3.40057C76.8934 3.00852 76.6832 2.53693 76.6832 1.9858C76.6832 1.44034 76.8934 0.974432 77.3139 0.588069C77.7344 0.196023 78.2372 0 78.8224 0C79.4133 0 79.9162 0.196023 80.3309 0.588069C80.7514 0.974432 80.9616 1.44034 80.9616 1.9858C80.9616 2.53693 80.7514 3.00852 80.3309 3.40057C79.9162 3.78693 79.4133 3.98011 78.8224 3.98011Z" fill="#030303"/>
<path d="M67.6328 18.5965V5.50564H71.6811V7.892H71.8175C72.0561 7.02836 72.4453 6.38632 72.9851 5.96586C73.5249 5.53973 74.1527 5.32666 74.8686 5.32666C75.0618 5.32666 75.2607 5.34086 75.4652 5.36927C75.6697 5.392 75.8601 5.42893 76.0362 5.48007V9.10223C75.8374 9.03405 75.576 8.98007 75.2521 8.9403C74.9339 8.90052 74.6499 8.88064 74.3999 8.88064C73.9055 8.88064 73.4595 8.99143 73.0618 9.21302C72.6697 9.42893 72.3601 9.73291 72.1328 10.125C71.9112 10.5113 71.8004 10.9659 71.8004 11.4886V18.5965H67.6328Z" fill="#030303"/>
<path d="M52.9766 18.5965V1.14197H60.1868C61.4936 1.14197 62.6214 1.39765 63.5703 1.90901C64.5249 2.41469 65.2607 3.12208 65.7777 4.03117C66.2947 4.93458 66.5533 5.98572 66.5533 7.18458C66.5533 8.38913 66.2891 9.4431 65.7607 10.3465C65.2379 11.2442 64.4908 11.9403 63.5192 12.4346C62.5476 12.9289 61.3942 13.1761 60.0589 13.1761H55.6101V9.8522H59.2749C59.9112 9.8522 60.4425 9.7414 60.8686 9.51981C61.3004 9.29822 61.6271 8.98856 61.8487 8.59083C62.0703 8.18742 62.1811 7.71867 62.1811 7.18458C62.1811 6.64481 62.0703 6.1789 61.8487 5.78685C61.6271 5.38913 61.3004 5.08231 60.8686 4.8664C60.4368 4.65049 59.9055 4.54254 59.2749 4.54254H57.1953V18.5965H52.9766Z" fill="#030303"/>
<path d="M42.2279 23.5056C41.7279 23.5056 41.2563 23.4658 40.8132 23.3863C40.37 23.3124 39.9893 23.213 39.6711 23.088L40.5916 20.0624C41.0007 20.1988 41.37 20.2783 41.6995 20.3011C42.0348 20.3238 42.3217 20.2698 42.5603 20.1391C42.8046 20.0141 42.9921 19.7897 43.1228 19.4658L43.2848 19.0738L38.6313 5.50562H42.995L45.4069 14.8465H45.5433L47.9893 5.50562H52.3785L47.4438 19.8494C47.2052 20.5653 46.8671 21.196 46.4296 21.7414C45.9978 22.2925 45.4382 22.7244 44.7507 23.0369C44.0688 23.3494 43.2279 23.5056 42.2279 23.5056Z" fill="#030303"/>
<path d="M38.3039 9.50282L34.4772 9.60509C34.4375 9.33236 34.3295 9.09089 34.1534 8.88066C33.9772 8.66475 33.7471 8.49714 33.463 8.37782C33.1846 8.25282 32.8608 8.19032 32.4914 8.19032C32.0085 8.19032 31.5965 8.28691 31.2556 8.48009C30.9204 8.67327 30.7556 8.93464 30.7613 9.26418C30.7556 9.51986 30.8579 9.74146 31.0681 9.92896C31.284 10.1165 31.6676 10.267 32.2187 10.3807L34.7414 10.8579C36.0483 11.1079 37.0198 11.5227 37.6562 12.1023C38.2983 12.6818 38.6221 13.4488 38.6278 14.4034C38.6221 15.3011 38.3551 16.0824 37.8267 16.7471C37.3039 17.4119 36.588 17.929 35.6789 18.2983C34.7698 18.6619 33.7301 18.8437 32.5596 18.8437C30.6903 18.8437 29.2159 18.4602 28.1363 17.6932C27.0625 16.9204 26.4488 15.8863 26.2954 14.5909L30.4119 14.4886C30.5028 14.9659 30.7386 15.3295 31.1193 15.5795C31.5 15.8295 31.9858 15.9545 32.5767 15.9545C33.1108 15.9545 33.5454 15.8551 33.8806 15.6562C34.2159 15.4574 34.3863 15.1932 34.392 14.8636C34.3863 14.5682 34.2556 14.3324 34 14.1562C33.7443 13.9744 33.3437 13.8324 32.7983 13.7301L30.5142 13.2954C29.2017 13.0568 28.2244 12.6165 27.5823 11.9744C26.9403 11.3267 26.6221 10.5028 26.6278 9.50282C26.6221 8.62782 26.8551 7.88066 27.3267 7.26134C27.7983 6.63634 28.4687 6.15907 29.338 5.82952C30.2073 5.49998 31.2329 5.33521 32.4147 5.33521C34.1875 5.33521 35.5852 5.70737 36.6079 6.45168C37.6306 7.19032 38.196 8.20736 38.3039 9.50282Z" fill="#030303"/>
<path d="M17.5028 18.8182C16.6676 18.8182 15.9261 18.679 15.2784 18.4005C14.6364 18.1165 14.1278 17.6903 13.7528 17.1221C13.3835 16.5483 13.1989 15.8295 13.1989 14.9659C13.1989 14.2386 13.3267 13.625 13.5824 13.125C13.8381 12.625 14.1903 12.2187 14.6392 11.9062C15.0881 11.5937 15.6051 11.3579 16.1903 11.1988C16.7756 11.0341 17.4006 10.9233 18.0653 10.8665C18.8096 10.7983 19.4091 10.7273 19.8636 10.6534C20.3182 10.5738 20.6477 10.463 20.8523 10.321C21.0625 10.1733 21.1676 9.96589 21.1676 9.69884V9.65623C21.1676 9.21873 21.017 8.88066 20.7159 8.64202C20.4148 8.40339 20.0085 8.28407 19.4971 8.28407C18.946 8.28407 18.5028 8.40339 18.1676 8.64202C17.8324 8.88066 17.6193 9.2102 17.5284 9.63066L13.6846 9.4943C13.7983 8.69884 14.0909 7.98861 14.5625 7.36361C15.0398 6.73293 15.6932 6.23861 16.5227 5.88066C17.3579 5.51702 18.3608 5.33521 19.5312 5.33521C20.3665 5.33521 21.1364 5.43464 21.8409 5.6335C22.5454 5.82668 23.1591 6.11077 23.6818 6.48577C24.2045 6.85509 24.6079 7.30964 24.892 7.84941C25.1818 8.38918 25.3267 9.00566 25.3267 9.69884V18.5966H21.4062V16.7727H21.304C21.071 17.2159 20.7727 17.5909 20.4091 17.8977C20.0511 18.2045 19.6278 18.4346 19.1392 18.588C18.6562 18.7415 18.1108 18.8182 17.5028 18.8182ZM18.7898 16.0909C19.2386 16.0909 19.642 16 20 15.8182C20.3636 15.6363 20.6534 15.3863 20.8693 15.0682C21.0852 14.7443 21.1932 14.3693 21.1932 13.9432V12.6988C21.0739 12.7613 20.929 12.8182 20.7585 12.8693C20.5937 12.9204 20.4119 12.9687 20.2131 13.0142C20.0142 13.0596 19.8096 13.0994 19.5994 13.1335C19.3892 13.1676 19.1875 13.1988 18.9943 13.2273C18.6023 13.2898 18.267 13.3863 17.9886 13.517C17.7159 13.6477 17.5057 13.8182 17.3579 14.0284C17.2159 14.2329 17.1449 14.4773 17.1449 14.7613C17.1449 15.1932 17.2983 15.5227 17.6051 15.75C17.9176 15.9772 18.3125 16.0909 18.7898 16.0909Z" fill="#030303"/>
<path d="M0 18.5965V1.14197H12.1705V4.5681H4.21875V8.14765H11.5483V11.5823H4.21875V15.1704H12.1705V18.5965H0Z" fill="#030303"/>
</svg>
