<svg width="19" height="21" viewBox="0 0 19 21" fill="none" xmlns="http://www.w3.org/2000/svg">
<path d="M2.375 18.6H5.9375V12.6C5.9375 12.26 6.0515 11.9752 6.2795 11.7456C6.5075 11.516 6.78933 11.4008 7.125 11.4H11.875C12.2115 11.4 12.4937 11.5152 12.7217 11.7456C12.9497 11.976 13.0633 12.2608 13.0625 12.6V18.6H16.625V7.8L9.5 2.4L2.375 7.8V18.6ZM0 18.6V7.8C0 7.42 0.0843123 7.06 0.252937 6.72C0.421562 6.38 0.653917 6.1 0.95 5.88L8.075 0.48C8.49062 0.16 8.96562 0 9.5 0C10.0344 0 10.5094 0.16 10.925 0.48L18.05 5.88C18.3469 6.1 18.5796 6.38 18.7482 6.72C18.9169 7.06 19.0008 7.42 19 7.8V18.6C19 19.26 18.7672 19.8252 18.3017 20.2956C17.8362 20.766 17.2773 21.0008 16.625 21H11.875C11.5385 21 11.2567 20.8848 11.0295 20.6544C10.8023 20.424 10.6883 20.1392 10.6875 19.8V13.8H8.3125V19.8C8.3125 20.14 8.1985 20.4252 7.9705 20.6556C7.7425 20.886 7.46067 21.0008 7.125 21H2.375C1.72187 21 1.16296 20.7652 0.69825 20.2956C0.233541 19.826 0.000791667 19.2608 0 18.6Z" fill="#E21A36"/>
</svg>
