<svg width="60" height="60" viewBox="0 0 60 60" fill="none" xmlns="http://www.w3.org/2000/svg">
<g id="Group 6982">
<g id="Group 7024">
<path id="Union" fill-rule="evenodd" clip-rule="evenodd" d="M43.831 16.633C43.5411 16.1741 39.5406 11.1478 39.0011 11.0877C38.4862 11.0302 38.9531 12.4261 39.4422 13.8883C39.9237 15.328 40.4268 16.8321 40.0354 17.0767C39.2788 17.5496 38.1112 18.1377 36.531 18.5327C35.8296 18.7081 35.1001 18.7762 34.3786 18.8435C34.2415 18.8563 34.1047 18.8691 33.9685 18.8826C32.9294 18.9853 31.6942 19.1074 30.3774 19.3494C27.6563 19.8492 24.5205 20.8697 21.5352 23.3576C19.3006 25.2198 17.586 28.83 17.2181 32.5913C16.9949 34.8726 17.2559 37.3349 18.2737 39.6185L15.4297 44.0877L19.2766 48.7039C19.3601 48.8811 19.4723 49.0435 19.608 49.1842C19.8742 49.4603 20.231 49.6531 20.6401 49.7115C21.6164 49.851 22.5209 49.1726 22.6604 48.1963C22.8024 47.2022 23.0464 46.1452 23.3912 45.0583C27.1426 47.0222 30.8658 47.6279 34.2737 47.0854C38.1779 46.464 41.5269 44.357 43.9095 41.3374C48.6833 35.2874 49.5462 25.682 43.831 16.633ZM34.1912 31.6836C29.9647 33.7968 26.7183 37.6781 24.7327 41.7256C24.4053 41.5463 24.0758 41.3538 23.7446 41.1474C23.051 40.5365 22.491 39.8602 22.0502 39.139C24.3688 34.8431 27.9377 30.8175 32.594 28.4893C33.4762 28.0483 34.5488 28.4058 34.9897 29.2879C35.4308 30.17 35.0733 31.2427 34.1912 31.6836Z" fill="#BEE2E4"/>
<path id="&#229;&#189;&#162;&#231;&#138;&#182;" fill-rule="evenodd" clip-rule="evenodd" d="M38.2325 10.669C38.7719 10.7292 39.2546 11.0313 39.5444 11.4902C45.2596 20.5392 44.3967 30.1446 39.623 36.1946C37.2403 39.2142 33.8914 41.3212 29.9871 41.9426C26.5792 42.4851 22.8561 41.8794 19.1046 39.9155C18.7599 41.0024 18.5158 42.0594 18.3738 43.0535C18.2344 44.0298 17.3298 44.7081 16.3535 44.5687C15.3772 44.4292 14.6988 43.5248 14.8383 42.5483C15.0616 40.9849 15.4853 39.3419 16.0909 37.6951C13.3469 34.6769 12.5978 30.8603 12.9315 27.4485C13.2995 23.6873 15.014 20.077 17.2486 18.2148C20.234 15.7269 23.3698 14.7064 26.0908 14.2066C27.4076 13.9647 28.6428 13.8425 29.6819 13.7398C30.5355 13.6554 31.4098 13.5986 32.2444 13.3899C33.8246 12.9949 34.9923 12.4068 35.7489 11.9339C36.5378 11.4409 37.2105 10.5551 38.2325 10.669ZM20.4461 36.5828C22.4317 32.5353 25.6782 28.654 29.9046 26.5408C30.7867 26.0999 31.1442 25.0273 30.7032 24.1451C30.2623 23.263 29.1896 22.9055 28.3075 23.3465C23.6511 25.6748 20.0823 29.7003 17.7637 33.9962C18.2045 34.7174 18.7644 35.3937 19.4581 36.0046C19.7893 36.211 20.1187 36.4035 20.4461 36.5828Z" fill="#00A2AB"/>
</g>
</g>
</svg>
