<svg width="60" height="60" viewBox="0 0 60 60" fill="none" xmlns="http://www.w3.org/2000/svg">
<path fill-rule="evenodd" clip-rule="evenodd" d="M31.9918 10.6475L35.6846 13.6144L35.6312 13.6202C35.8392 13.7277 36.0369 13.8607 36.2201 14.0177C36.8509 14.5586 37.2577 15.341 37.3511 16.193L37.7014 19.4065L40.4726 19.1045C41.2716 19.0191 42.0742 19.2754 42.7039 19.817L49.7004 25.8199C50.332 26.3568 50.7415 27.1354 50.8391 27.9851L51.6291 35.2334L52.6345 35.1239C52.8984 35.0974 53.163 35.1823 53.3714 35.3602C53.5799 35.5382 53.7156 35.7951 53.7495 36.0758L53.9829 38.2174C54.0133 38.5016 53.9368 38.7854 53.7703 39.0069C53.6037 39.2283 53.3606 39.3692 53.0942 39.3989L50.0799 39.7274C50.2656 41.4319 49.8086 43.1358 48.8094 44.4643C47.8101 45.7928 46.3505 46.6371 44.7516 46.8113C43.1527 46.9856 41.5454 46.4756 40.2835 45.3936C40.1713 45.2974 40.0627 45.1974 39.9578 45.0939L39.9647 45.1569L36.2719 42.19L38.1913 41.9808C38.1138 41.6741 38.0571 41.3602 38.0224 41.0415L29.9868 41.9173C30.1726 43.6218 29.7156 45.3257 28.7164 46.6542C27.7171 47.9827 26.2575 48.827 24.6586 49.0012C23.0597 49.1755 21.4524 48.6655 20.1905 47.5835C20.0039 47.4235 19.8271 47.253 19.6608 47.073L16.8474 44.8125L18.1736 44.4449C18.0568 44.0519 17.9746 43.6458 17.9294 43.2314L16.8237 38.4132L16.9958 34.6652L26.5416 33.6248C26.6747 33.6097 26.7961 33.5391 26.8793 33.4285C26.9625 33.3178 27.0009 33.1761 26.9859 33.034L26.8691 31.9622C26.8531 31.8203 26.7851 31.6901 26.68 31.6C26.5749 31.5098 26.4412 31.4671 26.308 31.481L13.245 32.9047C13.2332 32.906 13.2214 32.9067 13.2096 32.9071L13.1922 32.9114L13.1867 32.9072C13.0747 32.9052 12.9654 32.8638 12.8762 32.7886C12.7996 32.7241 12.7424 32.6384 12.7101 32.5422L9.14802 29.8143L14.2655 28.733L10.6748 25.2686L21.4886 23.3383L12.6553 24.301L11.9515 24.624L8.20436 21.1576L15.3151 19.2441L15.2451 18.6023C15.1993 18.1798 15.2321 17.753 15.3416 17.3463C15.451 16.9396 15.635 16.5609 15.883 16.2319C16.131 15.9029 16.4381 15.63 16.7868 15.4289C17.1356 15.2278 17.5191 15.1023 17.9154 15.0597L32.3018 13.4917L31.9918 10.6475ZM25.3087 22.9219L26.0783 25.0073L29.6278 24.6204C29.7609 24.6053 29.8823 24.5348 29.9655 24.4241C30.0488 24.3135 30.0871 24.1717 30.0721 24.0297L29.9553 22.9578C29.9393 22.8159 29.8713 22.6857 29.7662 22.5956C29.6611 22.5055 29.5274 22.4627 29.3942 22.4767L25.3087 22.9219ZM24.2256 27.3784L24.9984 29.4723L28.0789 29.1366C28.212 29.1215 28.3334 29.0509 28.4166 28.9403C28.4999 28.8296 28.5382 28.6878 28.5233 28.5458L28.4064 27.4739C28.3926 27.3314 28.3263 27.1998 28.2221 27.1078C28.1179 27.0159 27.9843 26.9711 27.8505 26.9833L24.2256 27.3784Z" fill="#E2DDEF"/>
<g clip-path="url(#clip0_1207_3398)">
<path d="M48.9411 32.1558L47.9356 32.2654L47.1457 25.017C47.0481 24.1673 46.6386 23.3887 46.0069 22.8519L39.0105 16.8489C38.3807 16.3073 37.5782 16.0511 36.7792 16.1364L34.0079 16.4384L33.6577 13.225C33.5643 12.3729 33.1575 11.5906 32.5266 11.0496C31.8958 10.5087 31.0925 10.2535 30.2931 10.34L14.222 12.0916C13.8257 12.1342 13.4422 12.2597 13.0934 12.4608C12.7447 12.6619 12.4375 12.9348 12.1895 13.2638C11.9416 13.5928 11.7576 13.9715 11.6481 14.3782C11.5387 14.7849 11.5059 15.2118 11.5517 15.6342L11.9019 18.8477L8.38483 19.231C8.25173 19.2461 8.13034 19.3167 8.04712 19.4273C7.9639 19.538 7.92558 19.6797 7.94051 19.8217L8.05733 20.8936C8.07434 21.0346 8.14265 21.1637 8.24754 21.2529C8.35242 21.342 8.48548 21.3843 8.618 21.3704L25.7008 19.5086C25.834 19.4946 25.9677 19.5374 26.0728 19.6275C26.1779 19.7176 26.2459 19.8478 26.2619 19.9897L26.3787 21.0616C26.3937 21.2036 26.3553 21.3454 26.2721 21.456C26.1889 21.5667 26.0675 21.6372 25.9344 21.6523L10.8605 23.2952C10.7274 23.3103 10.606 23.3808 10.5228 23.4915C10.4396 23.6021 10.4013 23.7439 10.4162 23.8859L10.533 24.9578C10.549 25.0997 10.617 25.2299 10.7221 25.32C10.8272 25.4101 10.9609 25.4529 11.0942 25.439L24.1571 24.0153C24.2909 24.003 24.4245 24.0478 24.5287 24.1397C24.6329 24.2317 24.6992 24.3633 24.713 24.5059L24.8298 25.5777C24.8448 25.7198 24.8064 25.8615 24.7232 25.9722C24.64 26.0828 24.5186 26.1534 24.3855 26.1685L9.31989 27.8104C9.18819 27.8253 9.06789 27.8946 8.98469 28.0033C8.90149 28.112 8.86198 28.2517 8.8746 28.3924L8.99142 29.4643C9.00942 29.6044 9.07808 29.7323 9.18275 29.8205C9.28742 29.9088 9.4198 29.9504 9.55161 29.9366L22.6145 28.5129C22.7478 28.499 22.8815 28.5417 22.9866 28.6319C23.0917 28.722 23.1597 28.8522 23.1757 28.9941L23.2925 30.066C23.3074 30.208 23.2691 30.3498 23.1859 30.4604C23.1027 30.571 22.9813 30.6416 22.8482 30.6567L13.3024 31.6971L14.236 40.2633C14.4217 41.9678 15.2351 43.5333 16.497 44.6154C17.759 45.6974 19.3662 46.2074 20.9652 46.0331C22.5641 45.8589 24.0237 45.0146 25.0229 43.6861C26.0222 42.3576 26.4792 40.6537 26.2934 38.9492L34.329 38.0734C34.5147 39.7779 35.3281 41.3434 36.59 42.4255C37.852 43.5075 39.4592 44.0175 41.0582 43.8433C42.6571 43.669 44.1167 42.8248 45.1159 41.4963C46.1152 40.1678 46.5722 38.4638 46.3864 36.7593L49.4008 36.4308C49.6672 36.4012 49.9103 36.2602 50.0769 36.0388C50.2434 35.8173 50.3199 35.5335 50.2894 35.2493L50.056 33.1078C50.0222 32.827 49.8865 32.5701 49.678 32.3922C49.4696 32.2142 49.205 32.1293 48.9411 32.1558ZM20.6161 42.8307C20.02 42.8957 19.4168 42.7708 18.8826 42.4718C18.3485 42.1728 17.9075 41.7132 17.6153 41.151C17.3231 40.5888 17.1929 39.9493 17.2411 39.3134C17.2893 38.6774 17.5138 38.0736 17.8861 37.5782C18.2585 37.0827 18.762 36.718 19.3331 36.53C19.9041 36.3421 20.5171 36.3394 21.0944 36.5222C21.6717 36.7051 22.1875 37.0653 22.5765 37.5573C22.9655 38.0493 23.2104 38.6511 23.28 39.2865C23.3263 39.7087 23.2941 40.1352 23.1853 40.5419C23.0764 40.9485 22.8931 41.3272 22.6457 41.6563C22.3983 41.9855 22.0917 42.2586 21.7435 42.4601C21.3952 42.6616 21.0121 42.7875 20.6161 42.8307ZM40.7132 40.6403C40.1171 40.7053 39.5137 40.5804 38.9795 40.2813C38.4453 39.9822 38.0043 39.5225 37.7121 38.9602C37.42 38.3978 37.2899 37.7582 37.3382 37.1222C37.3866 36.4862 37.6113 35.8823 37.9839 35.387C38.3565 34.8916 38.8602 34.527 39.4314 34.3393C40.0027 34.1516 40.6157 34.1492 41.193 34.3323C41.7703 34.5155 42.286 34.8761 42.6748 35.3684C43.0636 35.8608 43.3081 36.4628 43.3774 37.0984C43.4697 37.9505 43.241 38.8022 42.7415 39.4663C42.2419 40.1304 41.5125 40.5527 40.7132 40.6403ZM44.2199 26.1582L35.1747 27.144L34.3582 19.6518L37.1273 19.35L44.1322 25.3543L44.2199 26.1582Z" fill="#754AFA"/>
</g>
<defs>
<clipPath id="clip0_1207_3398">
<rect width="43.544" height="43.544" fill="white" transform="translate(5.14258 8.51962) rotate(-6.22)"/>
</clipPath>
</defs>
</svg>
