<svg width="60" height="60" viewBox="0 0 60 60" fill="none" xmlns="http://www.w3.org/2000/svg">
<g id="Frame">
<path id="Vector" fill-rule="evenodd" clip-rule="evenodd" d="M51.5322 48.8094L51.4734 48.7507C51.4734 48.7507 51.3951 48.6723 51.3559 48.6332L46.793 44.0702H31.1655L35.1017 37.079L45.2655 42.9344C47.0672 43.9723 49.6717 43.4632 50.6117 41.2307C53.7647 33.7498 51.3755 25.0157 44.8151 20.1982L44.8738 20.1002C45.4222 19.1602 45.0892 17.9657 44.1492 17.4173L39.2534 12.5215L38.5288 14.9694L42.0147 17.5348C41.7992 17.6915 41.623 17.8873 41.4859 18.1223L41.4272 18.2202C39.2534 17.2607 36.9622 16.7907 34.6709 16.7515L35.4934 15.7527L34.2009 14.8127L20.5905 16.2032L15.3226 23.0769L20.3751 28.2077C20.6884 28.619 21.0605 28.9519 21.5109 29.2261L27.9147 32.9273L20.1988 46.3027H12.2676L16.9872 50.9048C17.3005 51.5511 17.9467 52.0015 18.7301 52.0015H50.0634C51.1405 52.0015 52.0217 51.1202 52.0217 50.0432C52.0217 49.5536 51.8259 49.1227 51.5322 48.7898V48.8094ZM43.3463 25.2507C43.3855 24.9569 43.3855 24.0365 43.3855 23.7232C44.2276 24.7219 44.913 25.6423 45.4809 26.4844C45.618 26.6802 45.7355 26.8957 45.8726 27.0915C45.9117 27.1698 45.9705 27.2482 46.0097 27.3265C48.2226 30.9102 45.2459 30.5186 43.6597 34.6115C43.6597 34.6115 41.2117 35.7669 42.328 36.8048L40.3892 35.7082C42.5042 31.9482 43.1113 28.5015 43.3267 25.2702L43.3463 25.2507Z" fill="#FFE8BA"/>
<path id="Vector_2" d="M36.6283 13.2455L36.5696 13.3435C29.1083 10.073 20.3546 12.3643 15.4587 18.8464C13.99 20.7655 14.8517 23.2918 16.6533 24.3297L26.8562 30.2243L19.5517 43.208H13.8333C12.7562 43.208 11.875 44.0893 11.875 45.1664C11.875 46.2435 12.7562 47.1247 13.8333 47.1247H45.1862C46.2633 47.1247 47.1446 46.2435 47.1446 45.1664C47.1446 44.0893 46.2633 43.208 45.1862 43.208H24.0558L30.2638 32.1826L40.4275 38.038C42.2292 39.0956 44.8337 38.5668 45.7737 36.3343C48.9267 28.8535 46.5375 20.1193 39.9771 15.3018L40.0358 15.2039C40.5646 14.2639 40.2512 13.0693 39.3112 12.521C38.3713 11.9922 37.1767 12.3055 36.6283 13.2455Z" fill="#FFC200"/>
</g>
</svg>
