<svg width="60" height="60" viewBox="0 0 60 60" fill="none" xmlns="http://www.w3.org/2000/svg">
<g id="Group 6982">
<g id="Group 7027">
<path id="Union" fill-rule="evenodd" clip-rule="evenodd" d="M32.4261 12.175L37.1404 17.7464L37.1319 17.7458C38.3881 19.2839 39.1415 21.2487 39.1415 23.3895C39.1415 27.9042 35.7907 31.6363 31.4404 32.2344C32.4888 33.4778 33.492 34.6557 33.8502 34.6937C34.136 34.7241 34.1353 34.7247 34.0757 34.771C34.0051 34.8259 33.8518 34.945 33.9949 35.2542C34.2586 35.824 34.2038 36.4904 33.8502 37.0095C33.441 37.6104 33.0912 38.2549 32.8096 38.9349C32.6763 39.1139 32.5918 39.324 32.5689 39.5728C32.1992 40.6574 31.9986 41.8206 31.9986 43.0324C31.9986 44.6761 32.3676 46.2288 33.0254 47.6163C33.286 48.1656 33.249 48.8095 32.9277 49.3254C32.6063 49.8415 32.0445 50.1585 31.4368 50.1668L30.2129 50.1752C26.2326 50.1752 22.4712 49.924 19.6543 49.1781C18.2519 48.8067 16.933 48.2751 15.932 47.4715C15.4815 47.1099 15.0896 46.6862 14.7883 46.2021L10.6035 41.1486L15.2086 40.7139C15.3465 40.505 15.4939 40.3023 15.6486 40.1065C16.5306 38.9901 17.7512 37.9613 19.1813 37.0886C20.2411 36.4419 21.2169 35.2082 22.2428 33.911C23.1354 32.7825 24.066 31.6059 25.123 30.7261C24.667 30.4092 24.2419 30.0508 23.8533 29.6565V29.7464L18.8826 23.7464L21.2856 23.5392C21.2848 23.4894 21.2844 23.4395 21.2844 23.3895C21.2844 18.4584 25.2818 14.461 30.2129 14.461C30.7611 14.461 31.2977 14.5104 31.8186 14.6049L32.4261 12.175ZM32.5689 39.5728C32.5637 39.6297 32.5617 39.6885 32.5631 39.7495C32.5889 40.9034 34.9193 43.4779 36.3257 45.0316L36.3258 45.0318C36.6672 45.4089 36.9541 45.7258 37.1404 45.9477C38.0498 47.031 39.2964 47.988 40.7243 48.8361C41.3358 49.1993 41.9793 49.5801 42.7129 49.5801C43.4465 49.5801 44.0901 49.1993 44.7015 48.8361C47.627 47.0984 49.7915 44.904 49.8542 42.1026C49.8997 40.0745 49.2172 39.2603 47.6849 37.4327L47.6824 37.4297C47.5995 37.3308 47.514 37.2289 47.4261 37.1236C46.9631 36.5696 46.3557 35.8083 45.7714 35.0759L45.7713 35.0758C44.8334 33.9002 43.9545 32.7986 43.8261 32.7464C43.2269 32.5027 43.2521 33.3759 43.2818 34.4064C43.3125 35.4666 43.3479 36.6933 42.7129 37.0411C41.2461 36.2376 39.5926 36.3404 38.2483 37.1236C37.6645 37.4637 36.7666 37.623 35.8555 37.7847C34.6063 38.0063 33.3325 38.2323 32.8096 38.9349C32.7228 39.1442 32.6425 39.357 32.5689 39.5728Z" fill="#FAD8E9"/>
<path id="&#229;&#189;&#162;&#231;&#138;&#182;" d="M25.9289 9.31808C20.9977 9.31808 17.0003 13.3155 17.0003 18.2467C17.0003 23.1778 20.9977 27.1752 25.9289 27.1752C30.8599 27.1752 34.8574 23.1778 34.8574 18.2467C34.8574 13.3155 30.8599 9.31808 25.9289 9.31808ZM25.9289 28.9609C21.6512 28.9609 17.7586 30.1997 14.8972 31.9458C13.4671 32.8184 12.2465 33.8472 11.3645 34.9636C10.4968 36.0622 9.85742 37.377 9.85742 38.7824C9.85742 40.2911 10.5916 41.4808 11.6479 42.3286C12.6489 43.1322 13.9678 43.6638 15.3702 44.0352C18.1872 44.7811 21.9485 45.0324 25.9289 45.0324L27.1528 45.024C27.7605 45.0156 28.3222 44.6986 28.6437 44.1825C28.9649 43.6667 29.0019 43.0227 28.7414 42.4734C28.0835 41.0859 27.7146 39.5333 27.7146 37.8895C27.7146 35.6534 28.3976 33.5824 29.5662 31.8667C29.9197 31.3476 29.9746 30.6811 29.7108 30.1113C29.4471 29.5413 28.9035 29.152 28.279 29.0856C27.5128 29.0042 26.728 28.9609 25.9289 28.9609ZM33.9642 31.9808C35.3085 31.1975 36.9621 31.0947 38.4289 31.8983C39.8956 31.0947 41.5492 31.1975 42.8935 31.9808C44.5285 32.9333 45.6181 34.8208 45.5701 36.9597C45.5074 39.7611 43.343 41.9556 40.4174 43.6933C39.806 44.0565 39.1624 44.4372 38.4289 44.4372C37.6953 44.4372 37.0517 44.0565 36.4403 43.6933C33.5147 41.9556 31.3503 39.7611 31.2876 36.9597C31.2396 34.8208 32.3292 32.9333 33.9642 31.9808Z" fill="#F56675"/>
</g>
</g>
</svg>
