<svg width="20" height="20" viewBox="0 0 20 20" fill="none" xmlns="http://www.w3.org/2000/svg">
<path d="M19 9.646V19C19 19.2652 18.8946 19.5196 18.7071 19.7071C18.5196 19.8946 18.2652 20 18 20H2C1.73478 20 1.48043 19.8946 1.29289 19.7071C1.10536 19.5196 1 19.2652 1 19V9.646C0.355524 8.91523 -6.05681e-05 7.97436 7.7383e-09 7V1C7.7383e-09 0.734784 0.105357 0.48043 0.292893 0.292893C0.48043 0.105357 0.734784 0 1 0H19C19.2652 0 19.5196 0.105357 19.7071 0.292893C19.8946 0.48043 20 0.734784 20 1V7C20.0001 7.97436 19.6445 8.91523 19 9.646ZM17 10.874C16.2848 11.0574 15.5329 11.0398 14.8271 10.8231C14.1213 10.6064 13.4891 10.1991 13 9.646C12.6246 10.0716 12.163 10.4124 11.6457 10.6459C11.1285 10.8793 10.5675 11 10 11C9.43252 11 8.87152 10.8793 8.35428 10.6459C7.83704 10.4124 7.37539 10.0716 7 9.646C6.51231 10.2009 5.88013 10.6096 5.17388 10.8264C4.46764 11.0432 3.71506 11.0597 3 10.874V18H17V10.874ZM12 7C12 6.73478 12.1054 6.48043 12.2929 6.29289C12.4804 6.10536 12.7348 6 13 6C13.2652 6 13.5196 6.10536 13.7071 6.29289C13.8946 6.48043 14 6.73478 14 7C14 7.53043 14.2107 8.03914 14.5858 8.41421C14.9609 8.78929 15.4696 9 16 9C16.5304 9 17.0391 8.78929 17.4142 8.41421C17.7893 8.03914 18 7.53043 18 7V2H2V7C2 7.53043 2.21071 8.03914 2.58579 8.41421C2.96086 8.78929 3.46957 9 4 9C4.53043 9 5.03914 8.78929 5.41421 8.41421C5.78929 8.03914 6 7.53043 6 7C6 6.73478 6.10536 6.48043 6.29289 6.29289C6.48043 6.10536 6.73478 6 7 6C7.26522 6 7.51957 6.10536 7.70711 6.29289C7.89464 6.48043 8 6.73478 8 7C8 7.53043 8.21071 8.03914 8.58579 8.41421C8.96086 8.78929 9.46957 9 10 9C10.5304 9 11.0391 8.78929 11.4142 8.41421C11.7893 8.03914 12 7.53043 12 7Z" fill="#E21A36"/>
</svg>
