<svg width="97" height="20" viewBox="0 0 97 20" fill="none" xmlns="http://www.w3.org/2000/svg">
<path d="M67.2723 10.5213C67.2723 9.05357 69.5029 6.78588 70.6188 6.78588C70.925 6.78588 71.124 6.91728 71.124 7.22882C71.124 8.04176 69.4053 9.49178 67.2723 10.5213ZM61.7706 6.79018C62.0767 6.79018 62.2758 6.92152 62.2758 7.23322C62.2758 8.04616 60.557 9.49591 58.4239 10.5257C58.4239 9.05786 60.6545 6.79018 61.7706 6.79018ZM39.0416 10.6884C39.0416 8.93779 41.7025 7.00354 43.7616 7.00354C44.169 7.00354 44.5791 7.07246 44.9426 7.22038C42.5251 11.0748 39.0416 12.6074 39.0416 10.6884ZM36.7496 18.7577C36.5142 18.7577 36.3628 18.6399 36.3628 18.3898C36.3628 17.8445 37.4335 16.4263 40.2497 15.4128C39.0527 17.3684 37.6597 18.7577 36.7496 18.7577ZM20.9358 10.6884C20.9358 8.99826 23.5639 6.9971 25.6695 6.9971C26.0936 6.9971 26.4932 7.06669 26.8385 7.22038C24.2923 11.2262 20.9358 12.5427 20.9358 10.6884ZM37.331 2.95989C37.5633 2.95989 37.665 3.07609 37.665 3.29385C37.665 4.29572 35.2693 7.40281 32.8592 9.36284C33.469 7.22855 36.1985 2.95989 37.331 2.95989ZM91.7481 11.7924C93.5685 9.50682 91.1837 6.16569 93.7613 5.26003C93.7016 4.61787 93.0996 4.23414 92.3312 4.23414C91.6386 4.23414 90.8975 4.61264 90.4235 5.22407C87.7081 8.72793 84.889 11.4264 83.2763 11.4264C82.7391 11.4264 82.5505 11.1795 82.5505 10.7586C82.5505 9.45178 84.1911 7.53525 85.4544 6.19951C85.6141 6.02535 85.6866 5.85092 85.6866 5.69126C85.6866 5.2992 85.2366 5.03797 84.6848 5.03797C83.2977 5.03797 80.4179 7.23322 78.2903 9.23779C79.0524 7.79837 79.8984 6.65265 79.8984 6.03206C79.8984 5.3785 79.216 5.18985 78.4319 5.20448C75.3947 9.24167 71.4976 12.2244 68.9961 12.2244C68.3485 12.2244 67.9159 12.0058 67.6445 11.6828C70.8299 10.3809 73.4899 8.20664 73.4899 6.60197C73.4899 5.6078 72.656 5.16543 71.4876 5.16543C68.4879 5.16543 64.6928 8.35706 64.5051 11.5526C61.6143 12.5922 59.4609 12.4071 58.7962 11.6872C61.9814 10.3853 64.6416 8.21095 64.6416 6.60637C64.6416 5.61223 63.8076 5.16999 62.6392 5.16999C59.6136 5.16999 55.7787 8.41634 55.6522 11.6395C54.2048 12.0844 52.5593 12.28 52.5593 11.0872C52.5593 9.11954 55.5067 7.50371 55.5067 6.19427C55.5067 5.8312 55.3469 5.52622 55.071 5.36669C54.131 5.85092 52.7336 6.25224 51.7171 6.25224C51.9785 5.43928 51.7026 4.80035 50.9042 4.80035C49.728 4.80035 48.8312 6.12155 48.8312 7.19605C48.8312 7.66739 49.0051 7.99506 49.2898 8.21173C48.1233 9.78119 46.6452 11.2172 44.6519 12.3581C45.2471 11.1237 45.708 9.79472 46.3483 7.91885C47.895 7.00648 48.6801 5.14839 45.5634 5.14839C43.0083 5.14839 40.1861 6.68378 38.42 8.74885C36.1139 11.445 33.306 12.9508 32.8079 10.9047C36.6155 8.0404 40.1559 3.99155 40.117 1.9748C40.103 1.24543 39.6689 0.749928 38.6474 0.749928C36.2301 0.749928 30.5927 6.24526 30.114 11.1366C26.0782 13.2977 26.5354 9.89282 27.7693 8.10136C29.5625 7.18074 30.8036 5.14839 27.4595 5.14839C22.6072 5.14839 18.6134 9.66028 18.6809 12.5465C18.7009 13.401 19.1301 14.1061 20.0378 14.1064C21.0778 14.1073 22.7472 13.3864 24.5054 11.5698C24.1669 13.3097 24.5699 14.1064 25.9964 14.1064C27.1562 14.1064 28.6422 13.5231 30.2127 12.6203C30.4735 13.4325 31.1511 14.1064 32.4824 14.1064C33.8641 14.1064 35.5672 13.0185 36.9005 11.6141C36.8319 11.9257 36.7957 12.2379 36.7957 12.5478C36.7957 13.5573 37.3376 14.1061 38.1418 14.1064C39.0479 14.1071 40.4044 13.3879 41.8979 11.9783C41.663 12.6193 41.3943 13.2714 41.0784 13.9071C37.865 15.0418 34.5507 16.27 34.5507 18.4943C34.5507 19.438 35.3333 20 36.3206 20C38.7292 20 41.6894 17.1228 43.5374 14.317C45.8273 13.2905 48.4931 11.3466 50.5493 8.56651C51.0841 8.5795 51.6771 8.48736 52.2256 8.34312C50.4674 10.2113 49.6554 11.4212 49.6554 12.5972C49.6554 13.5701 50.3959 14.1064 51.7026 14.1064C52.843 14.1064 54.2763 13.703 55.9708 12.9573C56.4662 13.7168 57.4991 14.1064 58.827 14.1064C60.8079 14.1064 62.9995 13.4302 64.6989 12.7288C65.0754 13.5316 65.9816 14.1064 67.4347 14.1064C70.3887 14.1064 73.0613 12.232 75.3166 10.2234C74.2984 11.7728 72.7833 14.1064 74.9133 14.1064C75.2473 14.1064 75.7174 14.0525 76.103 13.9236C77.613 11.1651 79.5741 9.3792 81.5341 8.20319C79.9224 10.2068 79.2546 11.7314 79.2546 12.7186C79.2546 13.6332 79.8208 14.1064 80.75 14.1064C83.5801 14.1064 86.9049 11.1975 89.7671 7.86708C89.9139 9.13915 90.6885 10.5039 89.3321 11.6886C87.283 11.6404 86.1371 12.2312 86.1392 13.192C86.1407 13.7838 86.6365 14.1064 87.3379 14.1064C88.0509 14.1064 88.7505 13.8993 89.3998 13.5804C90.5475 13.9128 91.7325 14.2695 93.1173 14.2695C95.1372 14.2695 96.5594 13.2551 96.6041 11.5753C95.4459 12.1817 93.5793 11.9536 91.7481 11.7924Z" fill="#E21A36"/>
<path d="M10.6425 9.68351C10.6861 6.96838 12.6025 4.115 13.5754 4.115C13.8628 4.115 13.9239 4.30163 13.9239 4.50008C13.9239 5.42923 12.5445 7.91215 10.6425 9.68351ZM20.2861 4.27126e-05C19.3804 -0.00492169 18.5064 0.543309 17.9405 1.36619C20.6144 3.11474 17.338 11.8213 12.5059 11.8213C11.9268 11.8213 11.4355 11.6526 11.1067 11.3082C13.7226 8.95183 15.6123 5.74748 15.6123 3.85779C15.6123 2.89161 15.1403 2.2787 14.034 2.2787C10.8246 2.2787 7.44086 7.54449 8.06856 11.3434C6.04494 12.0622 5.03926 11.163 5.03926 9.35693C5.03926 5.58594 8.97941 1.67493 8.75068 0.498228C4.66803 1.76039 1.47282 -1.17209 0 3.60044C1.98456 2.52062 3.81645 4.24676 6.08037 2.98472C4.13606 5.22756 2.17361 8.40309 2.20003 11.0849C2.21749 12.8402 3.16556 14.1064 5.21935 14.1064C6.38562 14.1064 7.59585 13.6981 8.76074 13.0319C9.25987 13.6558 10.0642 14.1064 11.2935 14.1064C16.3056 14.1064 21.7834 7.06414 21.7834 2.03894C21.7834 0.705793 21.2543 0.00540964 20.2861 4.27126e-05Z" fill="#E21A36"/>
</svg>
